<svg width="740" height="739" viewBox="0 0 740 739" fill="none" xmlns="http://www.w3.org/2000/svg">
<path d="M373.795 26.3842C372.579 22.7374 367.421 22.7374 366.205 26.3842L282.412 277.765C281.867 279.398 280.339 280.5 278.617 280.5H27.4031C23.622 280.5 21.9518 285.261 24.9043 287.623L235.072 455.758C236.381 456.805 236.898 458.556 236.368 460.146L153.033 710.15C151.773 713.932 156.214 717.029 159.327 714.539L367.501 547.999C368.962 546.83 371.038 546.83 372.499 547.999L580.673 714.539C583.786 717.029 588.227 713.932 586.967 710.15L503.632 460.146C503.102 458.556 503.619 456.805 504.928 455.758L715.096 287.623C718.048 285.261 716.378 280.5 712.597 280.5H461.383C459.661 280.5 458.133 279.398 457.588 277.765L373.795 26.3842Z" stroke="black" stroke-width="46"/>
</svg>
